G75*
%MOIN*%
%OFA0B0*%
%FSLAX24Y24*%
%IPPOS*%
%LPD*%
%AMOC8*
5,1,8,0,0,1.08239X$1,22.5*
%
%ADD10R,0.2180X0.0840*%
%ADD11R,0.0513X0.0474*%
%ADD12R,0.0867X0.0552*%
%ADD13C,0.0513*%
%ADD14C,0.0395*%
%ADD15C,0.0671*%
%ADD16R,0.0330X0.0680*%
%ADD17R,0.0320X0.0680*%
%ADD18R,0.0840X0.2180*%
%ADD19R,0.1064X0.0316*%
%ADD20C,0.0516*%
%ADD21R,0.0516X0.0516*%
D10*
X009564Y002211D03*
X013364Y002211D03*
D11*
X012894Y003750D03*
X012225Y003750D03*
X011515Y003737D03*
X010846Y003737D03*
X010073Y003733D03*
X009404Y003733D03*
X015938Y009372D03*
X015938Y010042D03*
X013574Y009840D03*
X012905Y009840D03*
X012865Y010950D03*
X013534Y010950D03*
D12*
X008093Y007537D03*
X008093Y006564D03*
X008093Y005755D03*
X008093Y004781D03*
D13*
X007109Y005273D03*
X007109Y007045D03*
D14*
X006766Y003856D03*
X006923Y003856D03*
X007238Y003856D03*
X007396Y003856D03*
X007396Y008462D03*
X007238Y008462D03*
X006923Y008462D03*
X006766Y008462D03*
D15*
X006786Y008462D02*
X007376Y008462D01*
X007376Y003856D02*
X006786Y003856D01*
D16*
X009019Y004849D03*
X009519Y004849D03*
X010019Y004849D03*
X010519Y004849D03*
X011019Y004849D03*
X011519Y004849D03*
X012019Y004849D03*
X012519Y004849D03*
X012519Y006971D03*
X012019Y006971D03*
X011519Y006971D03*
X011019Y006971D03*
X010519Y006971D03*
X010019Y006971D03*
X009519Y006971D03*
X009019Y006971D03*
D17*
X009019Y008180D03*
X009519Y008180D03*
X010019Y008180D03*
X010519Y008180D03*
X011019Y008180D03*
X011519Y008180D03*
X012019Y008180D03*
X012019Y010330D03*
X011519Y010330D03*
X011019Y010330D03*
X010519Y010330D03*
X010019Y010330D03*
X009519Y010330D03*
X009019Y010330D03*
D18*
X014849Y008150D03*
X014849Y004350D03*
D19*
X016719Y004832D03*
X016719Y005226D03*
X016719Y005619D03*
X016719Y006013D03*
X016719Y006407D03*
X016719Y006801D03*
X016719Y007194D03*
X016719Y007588D03*
D20*
X013899Y009280D03*
X014339Y010320D03*
X014349Y010960D03*
X008589Y009090D03*
X008309Y008219D03*
X012933Y006259D03*
X013326Y005440D03*
X013153Y004684D03*
D21*
X015599Y006020D03*
M02*
