G75*
%MOIN*%
%OFA0B0*%
%FSLAX24Y24*%
%IPPOS*%
%LPD*%
%AMOC8*
5,1,8,0,0,1.08239X$1,22.5*
%
%ADD10C,0.0591*%
%ADD11C,0.0060*%
%ADD12R,0.0460X0.0630*%
%ADD13C,0.0120*%
%ADD14R,0.0030X0.6510*%
%ADD15R,0.0030X0.0300*%
%ADD16R,0.0030X0.0270*%
%ADD17R,0.0030X0.0390*%
%ADD18R,0.0030X0.0450*%
%ADD19R,0.0030X0.0600*%
%ADD20R,0.0030X0.0240*%
%ADD21R,0.0030X0.0210*%
%ADD22R,0.0030X0.0570*%
%ADD23R,0.0030X0.0750*%
%ADD24R,0.0030X0.0630*%
%ADD25R,0.0030X0.0870*%
%ADD26R,0.0030X0.0690*%
%ADD27R,0.0030X0.0900*%
%ADD28R,0.0030X0.0930*%
%ADD29R,0.0030X0.0330*%
%ADD30R,0.0030X0.0360*%
%ADD31R,0.0030X0.0180*%
%ADD32R,0.0030X0.0120*%
%ADD33R,0.0030X0.0150*%
%ADD34R,0.0030X0.0540*%
%ADD35R,0.0030X0.1020*%
%ADD36R,0.0030X0.0660*%
%ADD37R,0.0030X0.0090*%
%ADD38R,0.0030X0.0780*%
%ADD39R,0.0030X0.0840*%
%ADD40R,0.0030X0.0720*%
%ADD41R,0.0030X0.0810*%
%ADD42R,0.0030X0.0510*%
%ADD43R,0.0030X0.0480*%
%ADD44R,0.0030X0.5370*%
%ADD45C,0.0160*%
%ADD46C,0.0436*%
%ADD47C,0.0100*%
%ADD48R,0.0436X0.0436*%
D10*
X006786Y003856D02*
X007376Y003856D01*
X007376Y008462D02*
X006786Y008462D01*
D11*
X009822Y007803D02*
X009822Y007203D01*
X009824Y007186D01*
X009828Y007169D01*
X009835Y007153D01*
X009845Y007139D01*
X009858Y007126D01*
X009872Y007116D01*
X009888Y007109D01*
X009905Y007105D01*
X009922Y007103D01*
X011622Y007103D01*
X011639Y007105D01*
X011656Y007109D01*
X011672Y007116D01*
X011686Y007126D01*
X011699Y007139D01*
X011709Y007153D01*
X011716Y007169D01*
X011720Y007186D01*
X011722Y007203D01*
X011722Y007803D01*
X011720Y007820D01*
X011716Y007837D01*
X011709Y007853D01*
X011699Y007867D01*
X011686Y007880D01*
X011672Y007890D01*
X011656Y007897D01*
X011639Y007901D01*
X011622Y007903D01*
X009922Y007903D01*
X009905Y007901D01*
X009888Y007897D01*
X009872Y007890D01*
X009858Y007880D01*
X009845Y007867D01*
X009835Y007853D01*
X009828Y007837D01*
X009824Y007820D01*
X009822Y007803D01*
X009922Y006306D02*
X011622Y006306D01*
X011639Y006304D01*
X011656Y006300D01*
X011672Y006293D01*
X011686Y006283D01*
X011699Y006270D01*
X011709Y006256D01*
X011716Y006240D01*
X011720Y006223D01*
X011722Y006206D01*
X011722Y005606D01*
X011720Y005589D01*
X011716Y005572D01*
X011709Y005556D01*
X011699Y005542D01*
X011686Y005529D01*
X011672Y005519D01*
X011656Y005512D01*
X011639Y005508D01*
X011622Y005506D01*
X009922Y005506D01*
X009905Y005508D01*
X009888Y005512D01*
X009872Y005519D01*
X009858Y005529D01*
X009845Y005542D01*
X009835Y005556D01*
X009828Y005572D01*
X009824Y005589D01*
X009822Y005606D01*
X009822Y006206D01*
X009824Y006223D01*
X009828Y006240D01*
X009835Y006256D01*
X009845Y006270D01*
X009858Y006283D01*
X009872Y006293D01*
X009888Y006300D01*
X009905Y006304D01*
X009922Y006306D01*
X009922Y004709D02*
X011622Y004709D01*
X011639Y004707D01*
X011656Y004703D01*
X011672Y004696D01*
X011686Y004686D01*
X011699Y004673D01*
X011709Y004659D01*
X011716Y004643D01*
X011720Y004626D01*
X011722Y004609D01*
X011722Y004009D01*
X011720Y003992D01*
X011716Y003975D01*
X011709Y003959D01*
X011699Y003945D01*
X011686Y003932D01*
X011672Y003922D01*
X011656Y003915D01*
X011639Y003911D01*
X011622Y003909D01*
X009922Y003909D01*
X009905Y003911D01*
X009888Y003915D01*
X009872Y003922D01*
X009858Y003932D01*
X009845Y003945D01*
X009835Y003959D01*
X009828Y003975D01*
X009824Y003992D01*
X009822Y004009D01*
X009822Y004609D01*
X009824Y004626D01*
X009828Y004643D01*
X009835Y004659D01*
X009845Y004673D01*
X009858Y004686D01*
X009872Y004696D01*
X009888Y004703D01*
X009905Y004707D01*
X009922Y004709D01*
D12*
X010172Y004309D03*
X010772Y004309D03*
X011372Y004309D03*
X011372Y005906D03*
X010772Y005906D03*
X010172Y005906D03*
X010172Y007503D03*
X010772Y007503D03*
X011372Y007503D03*
D13*
X016556Y007800D02*
X017436Y007800D01*
X017436Y007507D02*
X017436Y008094D01*
X017290Y008428D02*
X017436Y008574D01*
X017436Y008868D01*
X017290Y009015D01*
X016996Y009015D01*
X016849Y008868D01*
X016849Y008721D01*
X016996Y008428D01*
X016556Y008428D01*
X016556Y009015D01*
X016849Y009348D02*
X016556Y009642D01*
X017436Y009642D01*
X017436Y009348D02*
X017436Y009936D01*
X016556Y007800D02*
X016849Y007507D01*
X016702Y007173D02*
X017290Y006586D01*
X017436Y006733D01*
X017436Y007026D01*
X017290Y007173D01*
X016702Y007173D01*
X016556Y007026D01*
X016556Y006733D01*
X016702Y006586D01*
X017290Y006586D01*
X017290Y006252D02*
X017436Y006106D01*
X017436Y005812D01*
X017290Y005665D01*
X016702Y006252D01*
X017290Y006252D01*
X016702Y006252D02*
X016556Y006106D01*
X016556Y005812D01*
X016702Y005665D01*
X017290Y005665D01*
X017290Y005332D02*
X016702Y005332D01*
X017290Y004744D01*
X017436Y004891D01*
X017436Y005185D01*
X017290Y005332D01*
X016702Y005332D02*
X016556Y005185D01*
X016556Y004891D01*
X016702Y004744D01*
X017290Y004744D01*
X017290Y004411D02*
X016996Y004411D01*
X016996Y004117D01*
X016702Y003824D02*
X016556Y003970D01*
X016556Y004264D01*
X016702Y004411D01*
X017290Y004411D02*
X017436Y004264D01*
X017436Y003970D01*
X017290Y003824D01*
X016702Y003824D01*
X016702Y003490D02*
X016849Y003490D01*
X016996Y003343D01*
X016996Y002903D01*
X016556Y002903D02*
X016556Y003343D01*
X016702Y003490D01*
X016996Y003343D02*
X017143Y003490D01*
X017290Y003490D01*
X017436Y003343D01*
X017436Y002903D01*
X016556Y002903D01*
D14*
X016181Y006004D03*
X016151Y006004D03*
X016121Y006004D03*
X016091Y006004D03*
X016061Y006004D03*
X016031Y006004D03*
X016001Y006004D03*
X015971Y006004D03*
X015941Y006004D03*
D15*
X015311Y005569D03*
X014891Y005599D03*
X014141Y004969D03*
X014141Y004249D03*
X015311Y003709D03*
X015311Y002899D03*
X015281Y002899D03*
X015251Y002899D03*
X015221Y002899D03*
X015191Y002899D03*
X015161Y002899D03*
X015131Y002899D03*
X015101Y002899D03*
X015071Y002899D03*
X015041Y002899D03*
X015011Y002899D03*
X014981Y002899D03*
X014951Y002899D03*
X014921Y002899D03*
X014891Y002899D03*
X014861Y002899D03*
X014831Y002899D03*
X014801Y002899D03*
X014771Y002899D03*
X014741Y002899D03*
X014711Y002899D03*
X014681Y002899D03*
X014651Y002899D03*
X014621Y002899D03*
X014591Y002899D03*
X014561Y002899D03*
X014531Y002899D03*
X014501Y002899D03*
X014471Y002899D03*
X014441Y002899D03*
X014411Y002899D03*
X014381Y002899D03*
X014351Y002899D03*
X014321Y002899D03*
X014291Y002899D03*
X014261Y002899D03*
X014231Y002899D03*
X014201Y002899D03*
X014171Y002899D03*
X014141Y002899D03*
X014111Y002899D03*
X014081Y002899D03*
X014051Y002899D03*
X014021Y002899D03*
X013991Y002899D03*
X013961Y002899D03*
X013931Y002899D03*
X013901Y002899D03*
X013871Y002899D03*
X013841Y002899D03*
X013811Y002899D03*
X013781Y002899D03*
X013751Y002899D03*
X013721Y002899D03*
X013691Y002899D03*
X013661Y002899D03*
X013631Y002899D03*
X013601Y002899D03*
X013571Y002899D03*
X013541Y002899D03*
X013511Y002899D03*
X013481Y002899D03*
X015341Y002899D03*
X015371Y002899D03*
X015401Y002899D03*
X015431Y002899D03*
X015461Y002899D03*
X015491Y002899D03*
X015521Y002899D03*
X015551Y002899D03*
X015581Y002899D03*
X015611Y002899D03*
X015641Y002899D03*
X015671Y002899D03*
X015701Y002899D03*
X015731Y002899D03*
X015761Y002899D03*
X015791Y002899D03*
X015821Y002899D03*
X015851Y002899D03*
X015881Y002899D03*
X015911Y002899D03*
X015311Y007489D03*
X014501Y007789D03*
X015341Y008119D03*
D16*
X015371Y008104D03*
X015401Y008104D03*
X015431Y008104D03*
X015401Y007504D03*
X015371Y007504D03*
X015341Y007504D03*
X014471Y007804D03*
X014441Y007804D03*
X014411Y007804D03*
X014411Y009124D03*
X014381Y009124D03*
X014351Y009124D03*
X014321Y009124D03*
X014291Y009124D03*
X014261Y009124D03*
X014231Y009124D03*
X014201Y009124D03*
X014171Y009124D03*
X014141Y009124D03*
X014111Y009124D03*
X014081Y009124D03*
X014051Y009124D03*
X014021Y009124D03*
X013991Y009124D03*
X013961Y009124D03*
X013931Y009124D03*
X013901Y009124D03*
X013871Y009124D03*
X013841Y009124D03*
X013811Y009124D03*
X013781Y009124D03*
X013751Y009124D03*
X013721Y009124D03*
X013691Y009124D03*
X013661Y009124D03*
X013631Y009124D03*
X013601Y009124D03*
X013571Y009124D03*
X013541Y009124D03*
X013511Y009124D03*
X013481Y009124D03*
X013451Y009124D03*
X013421Y009124D03*
X013391Y009124D03*
X013361Y009124D03*
X013331Y009124D03*
X013301Y009124D03*
X013271Y009124D03*
X013241Y009124D03*
X013211Y009124D03*
X014441Y009124D03*
X014471Y009124D03*
X014501Y009124D03*
X014531Y009124D03*
X014561Y009124D03*
X014591Y009124D03*
X014621Y009124D03*
X014651Y009124D03*
X014681Y009124D03*
X014711Y009124D03*
X014741Y009124D03*
X014771Y009124D03*
X014801Y009124D03*
X014831Y009124D03*
X014861Y009124D03*
X014891Y009124D03*
X014921Y009124D03*
X014951Y009124D03*
X014981Y009124D03*
X015011Y009124D03*
X015041Y009124D03*
X015071Y009124D03*
X015101Y009124D03*
X015131Y009124D03*
X015161Y009124D03*
X015191Y009124D03*
X015221Y009124D03*
X015251Y009124D03*
X015281Y009124D03*
X015311Y009124D03*
X015341Y009124D03*
X015371Y009124D03*
X015401Y009124D03*
X015431Y009124D03*
X015461Y009124D03*
X015491Y009124D03*
X015521Y009124D03*
X015551Y009124D03*
X015581Y009124D03*
X015611Y009124D03*
X015641Y009124D03*
X015671Y009124D03*
X015701Y009124D03*
X015731Y009124D03*
X015761Y009124D03*
X015791Y009124D03*
X015821Y009124D03*
X015851Y009124D03*
X015881Y009124D03*
X015911Y009124D03*
X015251Y005614D03*
X015281Y005584D03*
X014921Y005614D03*
X014531Y004924D03*
X014501Y004894D03*
X014171Y004924D03*
X014501Y004384D03*
X014531Y004384D03*
X014201Y004294D03*
X014951Y004384D03*
X015281Y004294D03*
X015311Y004264D03*
X015521Y003994D03*
X015281Y003694D03*
X015251Y003664D03*
X015041Y003604D03*
X014441Y003604D03*
X014291Y003634D03*
X014171Y003694D03*
X014141Y003724D03*
D17*
X013961Y003994D03*
X015521Y005224D03*
X015101Y007504D03*
X015071Y007504D03*
X014681Y007804D03*
X015101Y008104D03*
X015131Y008104D03*
X015161Y008104D03*
X015191Y008104D03*
D18*
X014831Y005494D03*
X014591Y005014D03*
X015491Y003994D03*
D19*
X014021Y003979D03*
X014651Y005149D03*
X014771Y005359D03*
X015491Y005209D03*
D20*
X015311Y004879D03*
X015101Y004369D03*
X015071Y004369D03*
X015041Y004369D03*
X015011Y004369D03*
X014981Y004369D03*
X014921Y004399D03*
X014891Y004399D03*
X014861Y004399D03*
X014831Y004399D03*
X014801Y004399D03*
X014771Y004399D03*
X014741Y004399D03*
X014711Y004399D03*
X014681Y004399D03*
X014651Y004399D03*
X014621Y004399D03*
X014591Y004399D03*
X014561Y004399D03*
X014471Y004369D03*
X014441Y004369D03*
X014411Y004369D03*
X014381Y004369D03*
X014351Y004369D03*
X014321Y004339D03*
X014291Y004339D03*
X014261Y004339D03*
X014231Y004309D03*
X014171Y004279D03*
X014201Y003679D03*
X014231Y003649D03*
X014261Y003649D03*
X014321Y003619D03*
X014351Y003619D03*
X014381Y003619D03*
X014411Y003619D03*
X014471Y003589D03*
X014501Y003589D03*
X014531Y003589D03*
X014561Y003589D03*
X014591Y003589D03*
X014621Y003589D03*
X014651Y003589D03*
X014681Y003589D03*
X014711Y003589D03*
X014741Y003589D03*
X014771Y003589D03*
X014801Y003589D03*
X014831Y003589D03*
X014861Y003589D03*
X014891Y003589D03*
X014921Y003589D03*
X014951Y003589D03*
X014981Y003589D03*
X015011Y003589D03*
X015071Y003619D03*
X015101Y003619D03*
X015131Y003619D03*
X015161Y003619D03*
X015191Y003649D03*
X015221Y003649D03*
X015221Y004309D03*
X015251Y004309D03*
X015191Y004339D03*
X015161Y004339D03*
X015131Y004339D03*
X014471Y004879D03*
X014441Y004879D03*
X014411Y004879D03*
X014291Y004879D03*
X014261Y004879D03*
X014201Y004909D03*
X014951Y005629D03*
X014981Y005629D03*
X015011Y005659D03*
X015041Y005659D03*
X015071Y005659D03*
X015101Y005659D03*
X015131Y005659D03*
X015221Y005629D03*
X015221Y006139D03*
X015191Y006139D03*
X015161Y006139D03*
X015131Y006139D03*
X015101Y006139D03*
X015071Y006139D03*
X015041Y006139D03*
X015011Y006139D03*
X014981Y006139D03*
X014951Y006139D03*
X014921Y006139D03*
X014891Y006139D03*
X014861Y006139D03*
X014831Y006139D03*
X014801Y006139D03*
X014561Y006139D03*
X014531Y006139D03*
X014501Y006139D03*
X014471Y006139D03*
X014441Y006139D03*
X014411Y006139D03*
X014381Y006139D03*
X014351Y006139D03*
X014321Y006139D03*
X014291Y006139D03*
X014261Y006139D03*
X014231Y006139D03*
X014201Y006139D03*
X014171Y006139D03*
X014141Y006139D03*
X014111Y006139D03*
X014081Y006139D03*
X014051Y006139D03*
X014021Y006139D03*
X013991Y006139D03*
X013961Y006139D03*
X013961Y006919D03*
X013991Y006919D03*
X014021Y006919D03*
X014051Y006919D03*
X014081Y006919D03*
X014111Y006919D03*
X014141Y006919D03*
X014171Y006919D03*
X014201Y006919D03*
X014231Y006919D03*
X014261Y006919D03*
X014291Y006919D03*
X014321Y006919D03*
X014351Y006919D03*
X014381Y006919D03*
X014411Y006919D03*
X014441Y006919D03*
X014471Y006919D03*
X014501Y006919D03*
X014531Y006919D03*
X014561Y006919D03*
X014801Y006919D03*
X014831Y006919D03*
X014861Y006919D03*
X014891Y006919D03*
X014921Y006919D03*
X014951Y006919D03*
X014981Y006919D03*
X015011Y006919D03*
X015041Y006919D03*
X015071Y006919D03*
X015101Y006919D03*
X015131Y006919D03*
X015161Y006919D03*
X015191Y006919D03*
X015221Y006919D03*
X015251Y006919D03*
X015281Y006919D03*
X015311Y006919D03*
X015341Y006919D03*
X015371Y006919D03*
X015401Y006919D03*
X015431Y006919D03*
X015461Y006919D03*
X015491Y006919D03*
X015491Y007489D03*
X015461Y007489D03*
X015431Y007489D03*
X015461Y008119D03*
X014921Y008239D03*
X014771Y008269D03*
X014651Y008299D03*
X014501Y008329D03*
X014351Y008359D03*
X014231Y008389D03*
X014201Y008389D03*
X014081Y008419D03*
X014051Y008419D03*
X013961Y008449D03*
X013931Y008449D03*
X013811Y008479D03*
X013781Y008479D03*
X013661Y008509D03*
X013631Y008509D03*
X013541Y008539D03*
X013511Y008539D03*
X013481Y008539D03*
X013391Y008569D03*
X013361Y008569D03*
X013331Y008569D03*
X013271Y008599D03*
X013241Y008599D03*
X013211Y008599D03*
X013121Y008629D03*
X013091Y008629D03*
X013061Y008629D03*
X012971Y008659D03*
X012941Y008659D03*
X012911Y008659D03*
X012851Y008689D03*
X012821Y008689D03*
X013991Y007279D03*
X014021Y007279D03*
X014051Y007279D03*
X014081Y007279D03*
X014111Y007279D03*
X014261Y007309D03*
X014291Y007309D03*
X014321Y007309D03*
X014501Y007339D03*
X015251Y006139D03*
X015281Y006139D03*
X015311Y006139D03*
X015341Y006139D03*
X015371Y006139D03*
X015401Y006139D03*
X015431Y006139D03*
X015461Y006139D03*
X015491Y006139D03*
D21*
X015191Y005644D03*
X015161Y005644D03*
X014141Y005584D03*
X013931Y005284D03*
X014231Y004894D03*
X014321Y004864D03*
X014351Y004864D03*
X014381Y004864D03*
X014231Y007294D03*
X014201Y007294D03*
X014171Y007294D03*
X014141Y007294D03*
X013961Y007264D03*
X014351Y007324D03*
X014381Y007324D03*
X014411Y007324D03*
X014441Y007324D03*
X014471Y007324D03*
X014531Y007354D03*
X014561Y007354D03*
X014591Y007354D03*
X014621Y007354D03*
X014651Y007354D03*
X014681Y007354D03*
X014711Y007354D03*
X014741Y007384D03*
X014771Y007384D03*
X014801Y007384D03*
X014831Y007384D03*
X014861Y007384D03*
X014891Y007384D03*
X014921Y007384D03*
X015011Y007414D03*
X015041Y007414D03*
X014771Y007684D03*
X014381Y007804D03*
X014531Y008314D03*
X014561Y008314D03*
X014591Y008314D03*
X014621Y008314D03*
X014681Y008284D03*
X014711Y008284D03*
X014741Y008284D03*
X014801Y008254D03*
X014831Y008254D03*
X014861Y008254D03*
X014891Y008254D03*
X014951Y008224D03*
X014981Y008224D03*
X015011Y008224D03*
X015041Y008224D03*
X015071Y008194D03*
X015491Y008104D03*
X014471Y008344D03*
X014441Y008344D03*
X014411Y008344D03*
X014381Y008344D03*
X014321Y008374D03*
X014291Y008374D03*
X014261Y008374D03*
X014171Y008404D03*
X014141Y008404D03*
X014111Y008404D03*
X014021Y008434D03*
X013991Y008434D03*
X013901Y008464D03*
X013871Y008464D03*
X013841Y008464D03*
X013751Y008494D03*
X013721Y008494D03*
X013691Y008494D03*
X013601Y008524D03*
X013571Y008524D03*
X013451Y008554D03*
X013421Y008554D03*
X013301Y008584D03*
X013181Y008614D03*
X013151Y008614D03*
X013031Y008644D03*
X013001Y008644D03*
X012881Y008674D03*
D22*
X015461Y003994D03*
D23*
X015371Y003994D03*
X015461Y005194D03*
X014021Y005314D03*
D24*
X013991Y005314D03*
X015431Y003994D03*
D25*
X015431Y005194D03*
D26*
X015401Y003994D03*
D27*
X015401Y005209D03*
D28*
X015371Y005224D03*
D29*
X014861Y005554D03*
X014561Y004954D03*
X015341Y004234D03*
X015341Y003754D03*
X015281Y007504D03*
X015251Y007504D03*
X015221Y007504D03*
X015191Y007504D03*
X015161Y007504D03*
X014621Y007804D03*
X014591Y007804D03*
X014561Y007804D03*
X014531Y007804D03*
X015221Y008104D03*
X015251Y008104D03*
X015281Y008104D03*
X015311Y008104D03*
D30*
X014651Y007789D03*
X015131Y007519D03*
X015341Y005509D03*
X015341Y004939D03*
D31*
X015281Y004849D03*
X013931Y003979D03*
X014951Y007399D03*
X014981Y007399D03*
X014981Y007639D03*
X014951Y007639D03*
X014921Y007639D03*
X014891Y007669D03*
X014861Y007669D03*
X014831Y007669D03*
X014801Y007669D03*
X014741Y007699D03*
X014711Y007699D03*
X015011Y007639D03*
X014921Y007939D03*
X014891Y007939D03*
X014861Y007939D03*
X014831Y007939D03*
X014771Y007909D03*
X014741Y007909D03*
X014711Y007909D03*
X014951Y007969D03*
X014981Y007969D03*
X015011Y007969D03*
X015041Y007969D03*
D32*
X015251Y004819D03*
D33*
X014171Y005614D03*
X015041Y007624D03*
X014801Y007924D03*
X015071Y007984D03*
D34*
X014801Y005419D03*
X014621Y005089D03*
D35*
X014621Y006529D03*
X014591Y006529D03*
X014651Y006529D03*
X014681Y006529D03*
X014711Y006529D03*
X014741Y006529D03*
X014771Y006529D03*
D36*
X014741Y005299D03*
X014711Y005239D03*
X014681Y005209D03*
X014051Y003979D03*
D37*
X014201Y005644D03*
D38*
X014051Y005299D03*
X014111Y003979D03*
D39*
X014111Y005269D03*
D40*
X014081Y003979D03*
D41*
X014081Y005284D03*
D42*
X013991Y003994D03*
D43*
X013961Y005299D03*
D44*
X013451Y005434D03*
X013421Y005434D03*
X013391Y005434D03*
X013361Y005434D03*
X013331Y005434D03*
X013301Y005434D03*
X013271Y005434D03*
X013241Y005434D03*
X013211Y005434D03*
D45*
X017827Y000380D02*
X006219Y000380D01*
X006219Y012067D01*
X017827Y012067D01*
X017827Y000380D01*
X017827Y000497D02*
X006219Y000497D01*
X006219Y000656D02*
X017827Y000656D01*
X017827Y000814D02*
X006219Y000814D01*
X006219Y000973D02*
X017827Y000973D01*
X017827Y001131D02*
X006219Y001131D01*
X006219Y001290D02*
X017827Y001290D01*
X017827Y001448D02*
X006219Y001448D01*
X006219Y001607D02*
X017827Y001607D01*
X017827Y001765D02*
X006219Y001765D01*
X006219Y001924D02*
X017827Y001924D01*
X017827Y002082D02*
X006219Y002082D01*
X006219Y002241D02*
X017827Y002241D01*
X017827Y002399D02*
X006219Y002399D01*
X006219Y002558D02*
X017827Y002558D01*
X017827Y002716D02*
X006219Y002716D01*
X006219Y002875D02*
X017827Y002875D01*
X017827Y003033D02*
X006219Y003033D01*
X006219Y003192D02*
X017827Y003192D01*
X017827Y003350D02*
X006219Y003350D01*
X006219Y003509D02*
X006433Y003509D01*
X006366Y003576D02*
X006505Y003436D01*
X006687Y003361D01*
X007475Y003361D01*
X007657Y003436D01*
X007796Y003576D01*
X007871Y003758D01*
X007871Y003955D01*
X007796Y004137D01*
X007657Y004276D01*
X007475Y004351D01*
X006687Y004351D01*
X006505Y004276D01*
X006366Y004137D01*
X006290Y003955D01*
X006290Y003758D01*
X006366Y003576D01*
X006328Y003667D02*
X006219Y003667D01*
X006219Y003826D02*
X006290Y003826D01*
X006303Y003984D02*
X006219Y003984D01*
X006219Y004143D02*
X006372Y004143D01*
X006219Y004301D02*
X006566Y004301D01*
X006219Y004460D02*
X009742Y004460D01*
X009742Y004301D02*
X007596Y004301D01*
X007790Y004143D02*
X009742Y004143D01*
X009742Y003984D02*
X007859Y003984D01*
X007871Y003826D02*
X009828Y003826D01*
X009860Y003794D02*
X011085Y003794D01*
X011108Y003817D01*
X011119Y003814D01*
X011337Y003814D01*
X011337Y004274D01*
X011407Y004274D01*
X011407Y003814D01*
X011626Y003814D01*
X011672Y003826D01*
X011713Y003850D01*
X011746Y003883D01*
X011770Y003924D01*
X011782Y003970D01*
X011782Y004274D01*
X011407Y004274D01*
X011407Y004344D01*
X011782Y004344D01*
X011782Y004640D01*
X012486Y004640D01*
X012680Y004447D01*
X012782Y004404D01*
X012842Y004404D01*
X012916Y004330D01*
X013070Y004266D01*
X013236Y004266D01*
X013390Y004330D01*
X013507Y004447D01*
X013571Y004601D01*
X013571Y004767D01*
X013507Y004921D01*
X013406Y005022D01*
X013409Y005022D01*
X013563Y005086D01*
X013680Y005203D01*
X013744Y005357D01*
X013744Y005523D01*
X013680Y005677D01*
X013563Y005794D01*
X013409Y005858D01*
X013243Y005858D01*
X013090Y005794D01*
X012972Y005677D01*
X012918Y005547D01*
X011777Y005547D01*
X011782Y005567D01*
X011782Y005871D01*
X011407Y005871D01*
X011407Y005941D01*
X011337Y005941D01*
X011337Y006401D01*
X011119Y006401D01*
X011108Y006398D01*
X011085Y006421D01*
X010459Y006421D01*
X010459Y006988D01*
X011085Y006988D01*
X011108Y007011D01*
X011119Y007008D01*
X011337Y007008D01*
X011337Y007468D01*
X011407Y007468D01*
X011407Y007008D01*
X011626Y007008D01*
X011672Y007020D01*
X011713Y007044D01*
X011746Y007077D01*
X011770Y007118D01*
X011782Y007164D01*
X011782Y007468D01*
X011407Y007468D01*
X011407Y007538D01*
X011337Y007538D01*
X011337Y007998D01*
X011119Y007998D01*
X011108Y007995D01*
X011085Y008018D01*
X011072Y008018D01*
X011127Y008073D01*
X011998Y008073D01*
X012653Y007418D01*
X012653Y006570D01*
X012578Y006495D01*
X012515Y006342D01*
X012515Y006176D01*
X012578Y006022D01*
X012696Y005905D01*
X012849Y005841D01*
X013016Y005841D01*
X013169Y005905D01*
X013287Y006022D01*
X013350Y006176D01*
X013350Y006342D01*
X013287Y006495D01*
X013213Y006570D01*
X013213Y007590D01*
X013170Y007693D01*
X013091Y007772D01*
X012272Y008591D01*
X012169Y008633D01*
X010956Y008633D01*
X010853Y008591D01*
X010774Y008512D01*
X010535Y008273D01*
X010492Y008170D01*
X010492Y008018D01*
X009860Y008018D01*
X009742Y007901D01*
X009742Y007820D01*
X008730Y007820D01*
X008615Y007935D01*
X008663Y007983D01*
X008726Y008136D01*
X008726Y008302D01*
X008663Y008456D01*
X008545Y008573D01*
X008392Y008637D01*
X008225Y008637D01*
X008072Y008573D01*
X007954Y008456D01*
X007891Y008302D01*
X007891Y008136D01*
X007954Y007983D01*
X008029Y007908D01*
X008029Y007790D01*
X008071Y007687D01*
X008150Y007608D01*
X008455Y007303D01*
X008558Y007260D01*
X009742Y007260D01*
X009742Y007105D01*
X009860Y006988D01*
X009899Y006988D01*
X009899Y006421D01*
X009860Y006421D01*
X009742Y006304D01*
X009742Y005508D01*
X009860Y005391D01*
X009899Y005391D01*
X009899Y004824D01*
X009860Y004824D01*
X009742Y004707D01*
X009742Y003911D01*
X009860Y003794D01*
X010172Y004309D02*
X010179Y004316D01*
X010179Y005780D01*
X010172Y005906D02*
X010179Y005913D01*
X010179Y007380D01*
X010019Y007540D02*
X008614Y007540D01*
X008309Y007845D01*
X008309Y008219D01*
X008726Y008264D02*
X010531Y008264D01*
X010492Y008105D02*
X008713Y008105D01*
X008627Y007947D02*
X009788Y007947D01*
X010772Y008114D02*
X010772Y007503D01*
X011337Y007630D02*
X011407Y007630D01*
X011407Y007538D02*
X011407Y007998D01*
X011626Y007998D01*
X011672Y007986D01*
X011713Y007962D01*
X011746Y007928D01*
X011770Y007887D01*
X011782Y007842D01*
X011782Y007538D01*
X011407Y007538D01*
X011407Y007471D02*
X012600Y007471D01*
X012441Y007630D02*
X011782Y007630D01*
X011782Y007788D02*
X012283Y007788D01*
X012124Y007947D02*
X011728Y007947D01*
X011407Y007947D02*
X011337Y007947D01*
X011337Y007788D02*
X011407Y007788D01*
X011407Y007313D02*
X011337Y007313D01*
X011337Y007154D02*
X011407Y007154D01*
X011093Y006996D02*
X012653Y006996D01*
X012653Y007154D02*
X011780Y007154D01*
X011782Y007313D02*
X012653Y007313D01*
X012933Y007534D02*
X012933Y006259D01*
X013262Y006520D02*
X015319Y006520D01*
X015319Y006438D02*
X015299Y006438D01*
X015181Y006321D01*
X015181Y005719D01*
X015299Y005602D01*
X015900Y005602D01*
X016017Y005719D01*
X016017Y006321D01*
X015900Y006438D01*
X015879Y006438D01*
X015879Y010556D01*
X015837Y010659D01*
X015288Y011207D01*
X015185Y011250D01*
X014650Y011250D01*
X014586Y011314D01*
X014432Y011378D01*
X014266Y011378D01*
X014113Y011314D01*
X013995Y011197D01*
X013931Y011043D01*
X013931Y010877D01*
X013995Y010723D01*
X014113Y010606D01*
X014266Y010542D01*
X014432Y010542D01*
X014586Y010606D01*
X014670Y010690D01*
X015013Y010690D01*
X015319Y010384D01*
X015319Y006438D01*
X015222Y006362D02*
X013342Y006362D01*
X013350Y006203D02*
X015181Y006203D01*
X015181Y006045D02*
X013296Y006045D01*
X013124Y005886D02*
X015181Y005886D01*
X015181Y005728D02*
X013629Y005728D01*
X013725Y005569D02*
X017827Y005569D01*
X017827Y005411D02*
X013744Y005411D01*
X013701Y005252D02*
X017827Y005252D01*
X017827Y005094D02*
X013571Y005094D01*
X013493Y004935D02*
X017827Y004935D01*
X017827Y004777D02*
X013567Y004777D01*
X013571Y004618D02*
X017827Y004618D01*
X017827Y004460D02*
X013512Y004460D01*
X013320Y004301D02*
X017827Y004301D01*
X017827Y004143D02*
X011782Y004143D01*
X011782Y003984D02*
X017827Y003984D01*
X017827Y003826D02*
X011670Y003826D01*
X011407Y003826D02*
X011337Y003826D01*
X011337Y003984D02*
X011407Y003984D01*
X011407Y004143D02*
X011337Y004143D01*
X011407Y004301D02*
X012986Y004301D01*
X012667Y004460D02*
X011782Y004460D01*
X011782Y004618D02*
X012508Y004618D01*
X012602Y004920D02*
X011027Y004920D01*
X010775Y004668D01*
X010775Y004312D01*
X010772Y004309D01*
X009812Y004777D02*
X006219Y004777D01*
X006219Y004935D02*
X006858Y004935D01*
X006873Y004920D02*
X007026Y004857D01*
X007191Y004857D01*
X007344Y004920D01*
X007462Y005037D01*
X007525Y005191D01*
X007525Y005356D01*
X007462Y005509D01*
X007344Y005627D01*
X007191Y005690D01*
X007026Y005690D01*
X006873Y005627D01*
X006755Y005509D01*
X006692Y005356D01*
X006692Y005191D01*
X006755Y005037D01*
X006873Y004920D01*
X006732Y005094D02*
X006219Y005094D01*
X006219Y005252D02*
X006692Y005252D01*
X006714Y005411D02*
X006219Y005411D01*
X006219Y005569D02*
X006815Y005569D01*
X007402Y005569D02*
X009742Y005569D01*
X009840Y005411D02*
X007503Y005411D01*
X007525Y005252D02*
X009899Y005252D01*
X009899Y005094D02*
X007485Y005094D01*
X007359Y004935D02*
X009899Y004935D01*
X009742Y004618D02*
X006219Y004618D01*
X006219Y005728D02*
X009742Y005728D01*
X009742Y005886D02*
X006219Y005886D01*
X006219Y006045D02*
X009742Y006045D01*
X009742Y006203D02*
X006219Y006203D01*
X006219Y006362D02*
X009800Y006362D01*
X009899Y006520D02*
X006219Y006520D01*
X006219Y006679D02*
X006905Y006679D01*
X006873Y006692D02*
X007026Y006629D01*
X007191Y006629D01*
X007344Y006692D01*
X007462Y006809D01*
X007525Y006962D01*
X007525Y007128D01*
X007462Y007281D01*
X007344Y007398D01*
X007191Y007462D01*
X007026Y007462D01*
X006873Y007398D01*
X006755Y007281D01*
X006692Y007128D01*
X006692Y006962D01*
X006755Y006809D01*
X006873Y006692D01*
X006744Y006837D02*
X006219Y006837D01*
X006219Y006996D02*
X006692Y006996D01*
X006703Y007154D02*
X006219Y007154D01*
X006219Y007313D02*
X006787Y007313D01*
X007430Y007313D02*
X008445Y007313D01*
X008287Y007471D02*
X006219Y007471D01*
X006219Y007630D02*
X008128Y007630D01*
X008029Y007788D02*
X006219Y007788D01*
X006219Y007947D02*
X007990Y007947D01*
X007904Y008105D02*
X007719Y008105D01*
X007657Y008042D02*
X007796Y008182D01*
X007871Y008364D01*
X007871Y008561D01*
X007796Y008743D01*
X007657Y008882D01*
X007475Y008958D01*
X006687Y008958D01*
X006505Y008882D01*
X006366Y008743D01*
X006290Y008561D01*
X006290Y008364D01*
X006366Y008182D01*
X006505Y008042D01*
X006687Y007967D01*
X007475Y007967D01*
X007657Y008042D01*
X007830Y008264D02*
X007891Y008264D01*
X007871Y008422D02*
X007940Y008422D01*
X007863Y008581D02*
X008089Y008581D01*
X007798Y008739D02*
X015319Y008739D01*
X015319Y008898D02*
X007620Y008898D01*
X008528Y008581D02*
X010843Y008581D01*
X010684Y008422D02*
X008677Y008422D01*
X009742Y007154D02*
X007514Y007154D01*
X007525Y006996D02*
X009852Y006996D01*
X009899Y006837D02*
X007473Y006837D01*
X007312Y006679D02*
X009899Y006679D01*
X010459Y006679D02*
X012653Y006679D01*
X012653Y006837D02*
X010459Y006837D01*
X010459Y006520D02*
X012603Y006520D01*
X012523Y006362D02*
X011716Y006362D01*
X011713Y006365D02*
X011672Y006389D01*
X011626Y006401D01*
X011407Y006401D01*
X011407Y005941D01*
X011782Y005941D01*
X011782Y006245D01*
X011770Y006290D01*
X011746Y006331D01*
X011713Y006365D01*
X011407Y006362D02*
X011337Y006362D01*
X011337Y006203D02*
X011407Y006203D01*
X011407Y006045D02*
X011337Y006045D01*
X011407Y005886D02*
X012741Y005886D01*
X012569Y006045D02*
X011782Y006045D01*
X011782Y006203D02*
X012515Y006203D01*
X013023Y005728D02*
X011782Y005728D01*
X011782Y005569D02*
X012928Y005569D01*
X013153Y005267D02*
X013326Y005440D01*
X013153Y005267D02*
X010948Y005267D01*
X010772Y005442D01*
X010772Y005906D01*
X012602Y004920D02*
X012838Y004684D01*
X013153Y004684D01*
X015599Y006020D02*
X015599Y010500D01*
X015129Y010970D01*
X014359Y010970D01*
X014349Y010960D01*
X013931Y010958D02*
X006219Y010958D01*
X006219Y011117D02*
X013962Y011117D01*
X014073Y011275D02*
X006219Y011275D01*
X006219Y011434D02*
X017827Y011434D01*
X017827Y011275D02*
X014625Y011275D01*
X015379Y011117D02*
X017827Y011117D01*
X017827Y010958D02*
X015537Y010958D01*
X015696Y010800D02*
X017827Y010800D01*
X017827Y010641D02*
X015844Y010641D01*
X015879Y010483D02*
X017827Y010483D01*
X017827Y010324D02*
X015879Y010324D01*
X015879Y010166D02*
X017827Y010166D01*
X017827Y010007D02*
X015879Y010007D01*
X015879Y009849D02*
X017827Y009849D01*
X017827Y009690D02*
X015879Y009690D01*
X015879Y009532D02*
X017827Y009532D01*
X017827Y009373D02*
X015879Y009373D01*
X015879Y009215D02*
X017827Y009215D01*
X017827Y009056D02*
X015879Y009056D01*
X015879Y008898D02*
X017827Y008898D01*
X017827Y008739D02*
X015879Y008739D01*
X015879Y008581D02*
X017827Y008581D01*
X017827Y008422D02*
X015879Y008422D01*
X015879Y008264D02*
X017827Y008264D01*
X017827Y008105D02*
X015879Y008105D01*
X015879Y007947D02*
X017827Y007947D01*
X017827Y007788D02*
X015879Y007788D01*
X015879Y007630D02*
X017827Y007630D01*
X017827Y007471D02*
X015879Y007471D01*
X015879Y007313D02*
X017827Y007313D01*
X017827Y007154D02*
X015879Y007154D01*
X015879Y006996D02*
X017827Y006996D01*
X017827Y006837D02*
X015879Y006837D01*
X015879Y006679D02*
X017827Y006679D01*
X017827Y006520D02*
X015879Y006520D01*
X015976Y006362D02*
X017827Y006362D01*
X017827Y006203D02*
X016017Y006203D01*
X016017Y006045D02*
X017827Y006045D01*
X017827Y005886D02*
X016017Y005886D01*
X016017Y005728D02*
X017827Y005728D01*
X015319Y006679D02*
X013213Y006679D01*
X013213Y006837D02*
X015319Y006837D01*
X015319Y006996D02*
X013213Y006996D01*
X013213Y007154D02*
X015319Y007154D01*
X015319Y007313D02*
X013213Y007313D01*
X013213Y007471D02*
X015319Y007471D01*
X015319Y007630D02*
X013196Y007630D01*
X013075Y007788D02*
X015319Y007788D01*
X015319Y007947D02*
X012916Y007947D01*
X012758Y008105D02*
X015319Y008105D01*
X015319Y008264D02*
X012599Y008264D01*
X012441Y008422D02*
X015319Y008422D01*
X015319Y008581D02*
X012282Y008581D01*
X012114Y008353D02*
X012933Y007534D01*
X012114Y008353D02*
X011011Y008353D01*
X010772Y008114D01*
X013899Y009280D02*
X014339Y009720D01*
X014339Y010320D01*
X014077Y010641D02*
X006219Y010641D01*
X006219Y010483D02*
X015221Y010483D01*
X015062Y010641D02*
X014621Y010641D01*
X013963Y010800D02*
X006219Y010800D01*
X006219Y010324D02*
X015319Y010324D01*
X015319Y010166D02*
X006219Y010166D01*
X006219Y010007D02*
X015319Y010007D01*
X015319Y009849D02*
X006219Y009849D01*
X006219Y009690D02*
X015319Y009690D01*
X015319Y009532D02*
X006219Y009532D01*
X006219Y009373D02*
X015319Y009373D01*
X015319Y009215D02*
X006219Y009215D01*
X006219Y009056D02*
X015319Y009056D01*
X017827Y011592D02*
X006219Y011592D01*
X006219Y011751D02*
X017827Y011751D01*
X017827Y011909D02*
X006219Y011909D01*
X006219Y008898D02*
X006542Y008898D01*
X006364Y008739D02*
X006219Y008739D01*
X006219Y008581D02*
X006299Y008581D01*
X006290Y008422D02*
X006219Y008422D01*
X006219Y008264D02*
X006332Y008264D01*
X006443Y008105D02*
X006219Y008105D01*
X007834Y003667D02*
X017827Y003667D01*
X017827Y003509D02*
X007729Y003509D01*
D46*
X012933Y006259D03*
X013326Y005440D03*
X013153Y004684D03*
X008309Y008219D03*
X008589Y009090D03*
X013899Y009280D03*
X014339Y010320D03*
X014349Y010960D03*
D47*
X010172Y007503D02*
X010019Y007540D01*
X010172Y007503D02*
X010179Y007380D01*
X010179Y005940D02*
X010172Y005906D01*
X010179Y005780D01*
X010179Y004340D02*
X010172Y004309D01*
D48*
X015599Y006020D03*
M02*
