%
M48
M72
T01C0.0276
T02C0.0315
T03C0.0433
%
T01
X8309Y8219
X8589Y9090
X12933Y6259
X13326Y5440
X13153Y4684
X15599Y6020
X13899Y9280
X14339Y10320
X14349Y10960
T02
X6766Y3856
X6923Y3856
X7081Y3856
X7238Y3856
X7396Y3856
X7396Y8462
X7238Y8462
X7081Y8462
X6923Y8462
X6766Y8462
T03
X7109Y7045
X7109Y5273
M30
