G75*
%MOIN*%
%OFA0B0*%
%FSLAX24Y24*%
%IPPOS*%
%LPD*%
%AMOC8*
5,1,8,0,0,1.08239X$1,22.5*
%
%ADD10C,0.0060*%
%ADD11R,0.0400X0.0010*%
%ADD12R,0.0760X0.0010*%
%ADD13R,0.0960X0.0010*%
%ADD14R,0.1030X0.0010*%
%ADD15R,0.1120X0.0010*%
%ADD16R,0.1190X0.0010*%
%ADD17R,0.1220X0.0010*%
%ADD18R,0.1260X0.0010*%
%ADD19R,0.1300X0.0010*%
%ADD20R,0.1320X0.0010*%
%ADD21R,0.1350X0.0010*%
%ADD22R,0.1370X0.0010*%
%ADD23R,0.1380X0.0010*%
%ADD24R,0.1400X0.0010*%
%ADD25R,0.1420X0.0010*%
%ADD26R,0.0600X0.0010*%
%ADD27R,0.0610X0.0010*%
%ADD28R,0.0420X0.0010*%
%ADD29R,0.0330X0.0010*%
%ADD30R,0.0360X0.0010*%
%ADD31R,0.0320X0.0010*%
%ADD32R,0.0280X0.0010*%
%ADD33R,0.0300X0.0010*%
%ADD34R,0.0260X0.0010*%
%ADD35R,0.0270X0.0010*%
%ADD36R,0.0240X0.0010*%
%ADD37R,0.0250X0.0010*%
%ADD38R,0.0230X0.0010*%
%ADD39R,0.0220X0.0010*%
%ADD40R,0.0210X0.0010*%
%ADD41R,0.0200X0.0010*%
%ADD42R,0.0190X0.0010*%
%ADD43R,0.0180X0.0010*%
%ADD44R,0.0170X0.0010*%
%ADD45R,0.0480X0.0010*%
%ADD46R,0.1410X0.0010*%
%ADD47R,0.1390X0.0010*%
%ADD48R,0.1360X0.0010*%
%ADD49R,0.1330X0.0010*%
%ADD50R,0.1310X0.0010*%
%ADD51R,0.1210X0.0010*%
%ADD52R,0.1160X0.0010*%
%ADD53R,0.1090X0.0010*%
%ADD54R,0.0970X0.0010*%
%ADD55R,0.0840X0.0010*%
%ADD56R,0.0660X0.0010*%
%ADD57R,0.0050X0.0010*%
%ADD58R,0.0790X0.0010*%
%ADD59R,0.0800X0.0010*%
%ADD60R,0.0780X0.0010*%
%ADD61R,0.0310X0.0010*%
%ADD62R,0.0290X0.0010*%
%ADD63R,0.0150X0.0010*%
%ADD64R,0.0160X0.0010*%
%ADD65R,0.0140X0.0010*%
%ADD66R,0.0130X0.0010*%
%ADD67R,0.0640X0.0010*%
%ADD68R,0.0590X0.0010*%
%ADD69R,0.0560X0.0010*%
%ADD70R,0.0540X0.0010*%
%ADD71R,0.0500X0.0010*%
%ADD72R,0.0470X0.0010*%
%ADD73R,0.0430X0.0010*%
%ADD74R,0.0030X0.0010*%
%ADD75R,0.0040X0.0010*%
%ADD76R,0.0020X0.0010*%
%ADD77C,0.0020*%
%ADD78C,0.0030*%
%ADD79C,0.0080*%
%ADD80C,0.0050*%
%ADD81C,0.0040*%
D10*
X006760Y000746D02*
X006816Y000746D01*
X006930Y000633D01*
X006930Y000746D02*
X006930Y000519D01*
X007071Y000633D02*
X007298Y000633D01*
X007298Y000689D02*
X007241Y000746D01*
X007128Y000746D01*
X007071Y000689D01*
X007071Y000633D01*
X007128Y000519D02*
X007241Y000519D01*
X007298Y000576D01*
X007298Y000689D01*
X007430Y000746D02*
X007544Y000746D01*
X007487Y000803D02*
X007487Y000576D01*
X007430Y000519D01*
X007685Y000576D02*
X007685Y000689D01*
X007742Y000746D01*
X007912Y000746D01*
X007912Y000406D01*
X007912Y000519D02*
X007742Y000519D01*
X007685Y000576D01*
X008053Y000633D02*
X008224Y000633D01*
X008280Y000576D01*
X008224Y000519D01*
X008053Y000519D01*
X008053Y000689D01*
X008110Y000746D01*
X008224Y000746D01*
X008422Y000746D02*
X008592Y000746D01*
X008649Y000689D01*
X008649Y000576D01*
X008592Y000519D01*
X008422Y000519D01*
X008422Y000859D01*
X008790Y000746D02*
X008790Y000519D01*
X008790Y000689D02*
X009017Y000689D01*
X009017Y000746D02*
X008904Y000859D01*
X008790Y000746D01*
X009017Y000746D02*
X009017Y000519D01*
X009527Y000519D02*
X009527Y000746D01*
X009640Y000859D01*
X009754Y000746D01*
X009754Y000519D01*
X009895Y000576D02*
X009895Y000803D01*
X009952Y000859D01*
X010122Y000859D01*
X010122Y000519D01*
X009952Y000519D01*
X009895Y000576D01*
X009754Y000689D02*
X009527Y000689D01*
X010263Y000689D02*
X010320Y000633D01*
X010490Y000633D01*
X010377Y000633D02*
X010263Y000519D01*
X010263Y000689D02*
X010263Y000803D01*
X010320Y000859D01*
X010490Y000859D01*
X010490Y000519D01*
X010622Y000519D02*
X010736Y000519D01*
X010679Y000519D02*
X010679Y000859D01*
X010736Y000859D02*
X010622Y000859D01*
X011246Y000803D02*
X011246Y000746D01*
X011302Y000689D01*
X011472Y000689D01*
X011614Y000633D02*
X011614Y000576D01*
X011671Y000519D01*
X011784Y000519D01*
X011841Y000576D01*
X011784Y000689D02*
X011671Y000689D01*
X011614Y000633D01*
X011614Y000803D02*
X011671Y000859D01*
X011784Y000859D01*
X011841Y000803D01*
X011841Y000746D01*
X011784Y000689D01*
X011982Y000576D02*
X011982Y000859D01*
X012209Y000859D02*
X012209Y000576D01*
X012152Y000519D01*
X012039Y000519D01*
X011982Y000576D01*
X011472Y000519D02*
X011302Y000519D01*
X011246Y000576D01*
X011246Y000633D01*
X011302Y000689D01*
X011246Y000803D02*
X011302Y000859D01*
X011472Y000859D01*
X011472Y000519D01*
X011564Y001961D02*
X011364Y001961D01*
X011364Y002461D01*
X011564Y002461D01*
X011564Y001961D01*
X011714Y001961D02*
X011714Y002211D01*
X011714Y002461D01*
X011214Y002461D02*
X011214Y002211D01*
X011214Y001961D01*
X009314Y001261D02*
X009297Y001263D01*
X009280Y001267D01*
X009264Y001274D01*
X009250Y001284D01*
X009237Y001297D01*
X009227Y001311D01*
X009220Y001327D01*
X009216Y001344D01*
X009214Y001361D01*
X009214Y001761D01*
X009314Y001261D02*
X013614Y001261D01*
X013631Y001263D01*
X013648Y001267D01*
X013664Y001274D01*
X013678Y001284D01*
X013691Y001297D01*
X013701Y001311D01*
X013708Y001327D01*
X013712Y001344D01*
X013714Y001361D01*
X013714Y001761D01*
X013714Y002661D02*
X013714Y003061D01*
X013712Y003078D01*
X013708Y003095D01*
X013701Y003111D01*
X013691Y003125D01*
X013678Y003138D01*
X013664Y003148D01*
X013648Y003155D01*
X013631Y003159D01*
X013614Y003161D01*
X009314Y003161D01*
X009297Y003159D01*
X009280Y003155D01*
X009264Y003148D01*
X009250Y003138D01*
X009237Y003125D01*
X009227Y003111D01*
X009220Y003095D01*
X009216Y003078D01*
X009214Y003061D01*
X009214Y002661D01*
X013899Y004100D02*
X013899Y008400D01*
X013901Y008417D01*
X013905Y008434D01*
X013912Y008450D01*
X013922Y008464D01*
X013935Y008477D01*
X013949Y008487D01*
X013965Y008494D01*
X013982Y008498D01*
X013999Y008500D01*
X014399Y008500D01*
X015299Y008500D02*
X015699Y008500D01*
X015716Y008498D01*
X015733Y008494D01*
X015749Y008487D01*
X015763Y008477D01*
X015776Y008464D01*
X015786Y008450D01*
X015793Y008434D01*
X015797Y008417D01*
X015799Y008400D01*
X015799Y004100D01*
X015797Y004083D01*
X015793Y004066D01*
X015786Y004050D01*
X015776Y004036D01*
X015763Y004023D01*
X015749Y004013D01*
X015733Y004006D01*
X015716Y004002D01*
X015699Y004000D01*
X015299Y004000D01*
X014399Y004000D02*
X013999Y004000D01*
X013982Y004002D01*
X013965Y004006D01*
X013949Y004013D01*
X013935Y004023D01*
X013922Y004036D01*
X013912Y004050D01*
X013905Y004066D01*
X013901Y004083D01*
X013899Y004100D01*
X014599Y006000D02*
X014849Y006000D01*
X015099Y006000D01*
X015099Y006150D02*
X014599Y006150D01*
X014599Y006350D01*
X015099Y006350D01*
X015099Y006150D01*
X015099Y006500D02*
X014849Y006500D01*
X014599Y006500D01*
D11*
X016794Y001249D03*
X016294Y001089D03*
D12*
X016274Y001099D03*
X016234Y002189D03*
D13*
X016284Y001109D03*
D14*
X016279Y001119D03*
D15*
X016284Y001129D03*
D16*
X016279Y001139D03*
D17*
X016284Y001149D03*
D18*
X016274Y001159D03*
X016274Y002039D03*
D19*
X016274Y001169D03*
D20*
X016274Y001179D03*
D21*
X016279Y001189D03*
D22*
X016279Y001199D03*
D23*
X016274Y001209D03*
D24*
X016274Y001219D03*
D25*
X016274Y001229D03*
D26*
X016684Y001239D03*
D27*
X015869Y001239D03*
X016239Y002289D03*
D28*
X016224Y002359D03*
X015744Y001969D03*
X015764Y001249D03*
X016754Y001979D03*
D29*
X016819Y001959D03*
X016829Y001259D03*
X015709Y001269D03*
D30*
X015724Y001259D03*
X015714Y001959D03*
X016254Y002369D03*
X016794Y001969D03*
D31*
X016844Y001269D03*
X015684Y001949D03*
D32*
X015654Y001929D03*
X016224Y002249D03*
X016844Y001949D03*
X016864Y001279D03*
X015674Y001289D03*
D33*
X015694Y001279D03*
X015664Y001939D03*
D34*
X015634Y001909D03*
X015624Y001899D03*
X016234Y002379D03*
X016884Y001299D03*
X016874Y001289D03*
D35*
X016859Y001939D03*
X016229Y002219D03*
X016229Y002229D03*
X016229Y002239D03*
X015639Y001919D03*
X015669Y001299D03*
D36*
X015644Y001329D03*
X015614Y001889D03*
X016884Y001919D03*
X016894Y001309D03*
D37*
X016869Y001929D03*
X015659Y001309D03*
X015649Y001319D03*
D38*
X015639Y001339D03*
X015629Y001349D03*
X015629Y001359D03*
X015599Y001849D03*
X015599Y001859D03*
X015609Y001869D03*
X015609Y001879D03*
X016889Y001909D03*
X016899Y001319D03*
D39*
X016904Y001329D03*
X016904Y001899D03*
X015944Y002139D03*
X015594Y001839D03*
X015594Y001829D03*
X015624Y001369D03*
D40*
X015619Y001379D03*
X015619Y001389D03*
X015619Y001399D03*
X015609Y001419D03*
X015609Y001429D03*
X015589Y001769D03*
X015589Y001779D03*
X015589Y001789D03*
X015589Y001799D03*
X015589Y001809D03*
X015589Y001819D03*
X016909Y001879D03*
X016909Y001889D03*
X016919Y001359D03*
X016909Y001349D03*
X016909Y001339D03*
D41*
X016924Y001369D03*
X016924Y001379D03*
X016924Y001389D03*
X016934Y001429D03*
X016914Y001869D03*
X016514Y002199D03*
X015584Y001759D03*
X015584Y001749D03*
X015584Y001739D03*
X015584Y001729D03*
X015584Y001719D03*
X015584Y001709D03*
X015584Y001699D03*
X015584Y001689D03*
X015584Y001679D03*
X015584Y001669D03*
X015584Y001659D03*
X015584Y001649D03*
X015584Y001639D03*
X015584Y001629D03*
X015594Y001599D03*
X015594Y001589D03*
X015594Y001579D03*
X015594Y001569D03*
X015594Y001559D03*
X015594Y001549D03*
X015594Y001539D03*
X015594Y001529D03*
X015594Y001519D03*
X015594Y001509D03*
X015604Y001479D03*
X015604Y001469D03*
X015604Y001459D03*
X015604Y001449D03*
X015604Y001439D03*
X015614Y001409D03*
D42*
X015599Y001489D03*
X015599Y001499D03*
X015589Y001609D03*
X015589Y001619D03*
X016919Y001859D03*
X016929Y001849D03*
X016929Y001839D03*
X016939Y001809D03*
X016939Y001479D03*
X016939Y001469D03*
X016939Y001459D03*
X016939Y001449D03*
X016939Y001439D03*
X016929Y001419D03*
X016929Y001409D03*
X016929Y001399D03*
D43*
X016944Y001489D03*
X016944Y001499D03*
X016944Y001509D03*
X016944Y001519D03*
X016944Y001529D03*
X016944Y001539D03*
X016944Y001549D03*
X016944Y001559D03*
X016944Y001569D03*
X016944Y001579D03*
X016944Y001589D03*
X016944Y001599D03*
X016944Y001609D03*
X016944Y001619D03*
X016944Y001739D03*
X016944Y001749D03*
X016944Y001759D03*
X016944Y001769D03*
X016944Y001779D03*
X016944Y001789D03*
X016944Y001799D03*
X016934Y001819D03*
X016934Y001829D03*
D44*
X016949Y001729D03*
X016949Y001719D03*
X016949Y001709D03*
X016949Y001699D03*
X016949Y001689D03*
X016949Y001679D03*
X016949Y001669D03*
X016949Y001659D03*
X016949Y001649D03*
X016949Y001639D03*
X016949Y001629D03*
X016519Y002209D03*
X015939Y002199D03*
D45*
X016144Y002269D03*
X015784Y001979D03*
D46*
X016259Y001989D03*
D47*
X016259Y001999D03*
D48*
X016264Y002009D03*
D49*
X016269Y002019D03*
D50*
X016269Y002029D03*
D51*
X016279Y002049D03*
D52*
X016284Y002059D03*
D53*
X016299Y002069D03*
D54*
X016319Y002079D03*
D55*
X016344Y002089D03*
D56*
X016364Y002099D03*
D57*
X015859Y002129D03*
D58*
X016229Y002149D03*
D59*
X016234Y002159D03*
D60*
X016234Y002169D03*
X016234Y002179D03*
D61*
X016239Y002199D03*
D62*
X016229Y002209D03*
X016219Y002259D03*
D63*
X015939Y002219D03*
X015939Y002209D03*
X016519Y002229D03*
D64*
X016524Y002219D03*
X016234Y002389D03*
D65*
X016494Y002269D03*
X016504Y002259D03*
X016514Y002249D03*
X016514Y002239D03*
X015944Y002229D03*
D66*
X015949Y002239D03*
X015949Y002249D03*
X015959Y002259D03*
D67*
X016234Y002279D03*
D68*
X016239Y002299D03*
D69*
X016234Y002309D03*
D70*
X016234Y002319D03*
D71*
X016234Y002329D03*
D72*
X016239Y002339D03*
D73*
X016229Y002349D03*
D74*
X016029Y002369D03*
X015989Y002419D03*
X015969Y002449D03*
X016429Y002389D03*
X016439Y002409D03*
X016459Y002439D03*
X016469Y002449D03*
X016479Y002469D03*
D75*
X016474Y002459D03*
X016454Y002429D03*
X016444Y002419D03*
X016434Y002399D03*
X016424Y002379D03*
X016024Y002379D03*
X016014Y002389D03*
X016004Y002399D03*
X015994Y002409D03*
X015984Y002429D03*
X015974Y002439D03*
D76*
X015964Y002459D03*
D77*
X013475Y001761D02*
X013443Y001716D01*
X013407Y001674D01*
X013368Y001634D01*
X013326Y001597D01*
X013283Y001563D01*
X013236Y001532D01*
X013188Y001504D01*
X013138Y001480D01*
X013087Y001459D01*
X013034Y001442D01*
X012980Y001428D01*
X012925Y001419D01*
X012870Y001413D01*
X012814Y001411D01*
X010114Y001411D01*
X010114Y001711D02*
X012814Y001711D01*
X013475Y002661D02*
X013443Y002706D01*
X013407Y002748D01*
X013368Y002788D01*
X013327Y002825D01*
X013283Y002859D01*
X013236Y002890D01*
X013188Y002918D01*
X013138Y002942D01*
X013087Y002963D01*
X013034Y002980D01*
X012980Y002994D01*
X012925Y003003D01*
X012870Y003009D01*
X012814Y003011D01*
X010114Y003011D01*
X010114Y002711D02*
X012814Y002711D01*
X012852Y002710D01*
X012889Y002705D01*
X012926Y002698D01*
X012962Y002689D01*
X012998Y002676D01*
X013032Y002661D01*
X013032Y001761D02*
X012998Y001746D01*
X012962Y001733D01*
X012926Y001724D01*
X012889Y001717D01*
X012852Y001712D01*
X012814Y001711D01*
X011864Y002211D02*
X011714Y002211D01*
X011214Y002211D02*
X011064Y002211D01*
X010114Y001411D02*
X010058Y001413D01*
X010003Y001419D01*
X009948Y001428D01*
X009894Y001442D01*
X009841Y001459D01*
X009790Y001480D01*
X009740Y001504D01*
X009692Y001532D01*
X009645Y001563D01*
X009601Y001597D01*
X009560Y001634D01*
X009521Y001674D01*
X009485Y001716D01*
X009453Y001761D01*
X009453Y002661D02*
X009485Y002706D01*
X009521Y002748D01*
X009560Y002788D01*
X009602Y002825D01*
X009645Y002859D01*
X009692Y002890D01*
X009740Y002918D01*
X009790Y002942D01*
X009841Y002963D01*
X009894Y002980D01*
X009948Y002994D01*
X010003Y003003D01*
X010058Y003009D01*
X010114Y003011D01*
X010114Y002711D02*
X010076Y002710D01*
X010039Y002705D01*
X010002Y002698D01*
X009966Y002689D01*
X009930Y002676D01*
X009896Y002661D01*
X009896Y001761D02*
X009930Y001746D01*
X009966Y001733D01*
X010002Y001724D01*
X010039Y001717D01*
X010076Y001712D01*
X010114Y001711D01*
X014049Y004900D02*
X014049Y007600D01*
X014349Y007600D02*
X014349Y004900D01*
X015299Y004239D02*
X015344Y004271D01*
X015386Y004307D01*
X015426Y004346D01*
X015463Y004387D01*
X015497Y004431D01*
X015528Y004478D01*
X015556Y004526D01*
X015580Y004576D01*
X015601Y004627D01*
X015618Y004680D01*
X015632Y004734D01*
X015641Y004789D01*
X015647Y004844D01*
X015649Y004900D01*
X015649Y007600D01*
X015349Y007600D02*
X015349Y004900D01*
X015348Y004862D01*
X015343Y004825D01*
X015336Y004788D01*
X015327Y004752D01*
X015314Y004716D01*
X015299Y004682D01*
X014399Y004239D02*
X014354Y004271D01*
X014312Y004307D01*
X014272Y004346D01*
X014235Y004388D01*
X014201Y004431D01*
X014170Y004478D01*
X014142Y004526D01*
X014118Y004576D01*
X014097Y004627D01*
X014080Y004680D01*
X014066Y004734D01*
X014057Y004789D01*
X014051Y004844D01*
X014049Y004900D01*
X014349Y004900D02*
X014350Y004862D01*
X014355Y004825D01*
X014362Y004788D01*
X014371Y004752D01*
X014384Y004716D01*
X014399Y004682D01*
X014849Y005850D02*
X014849Y006000D01*
X014849Y006500D02*
X014849Y006650D01*
X014049Y007600D02*
X014051Y007656D01*
X014057Y007711D01*
X014066Y007766D01*
X014080Y007820D01*
X014097Y007873D01*
X014118Y007924D01*
X014142Y007974D01*
X014170Y008022D01*
X014201Y008069D01*
X014235Y008113D01*
X014272Y008154D01*
X014312Y008193D01*
X014354Y008229D01*
X014399Y008261D01*
X015299Y008261D02*
X015344Y008229D01*
X015386Y008193D01*
X015426Y008154D01*
X015463Y008112D01*
X015497Y008069D01*
X015528Y008022D01*
X015556Y007974D01*
X015580Y007924D01*
X015601Y007873D01*
X015618Y007820D01*
X015632Y007766D01*
X015641Y007711D01*
X015647Y007656D01*
X015649Y007600D01*
X015349Y007600D02*
X015348Y007638D01*
X015343Y007675D01*
X015336Y007712D01*
X015327Y007748D01*
X015314Y007784D01*
X015299Y007818D01*
X014399Y007818D02*
X014384Y007784D01*
X014371Y007748D01*
X014362Y007712D01*
X014355Y007675D01*
X014350Y007638D01*
X014349Y007600D01*
D78*
X016276Y008324D02*
X016469Y008324D01*
X016372Y008324D02*
X016372Y008615D01*
X016469Y008518D01*
X016570Y008566D02*
X016619Y008615D01*
X016764Y008615D01*
X016764Y008324D01*
X016764Y008421D02*
X016619Y008421D01*
X016570Y008470D01*
X016570Y008566D01*
X016667Y008421D02*
X016570Y008324D01*
X016865Y008324D02*
X017058Y008615D01*
X016865Y008615D02*
X017058Y008324D01*
X013174Y010239D02*
X013126Y010191D01*
X013029Y010191D01*
X012981Y010239D01*
X012880Y010191D02*
X012686Y010191D01*
X012783Y010191D02*
X012783Y010481D01*
X012880Y010384D01*
X012981Y010433D02*
X013029Y010481D01*
X013126Y010481D01*
X013174Y010433D01*
X013174Y010239D01*
X013116Y011365D02*
X013019Y011365D01*
X012971Y011413D01*
X012870Y011413D02*
X012821Y011365D01*
X012724Y011365D01*
X012676Y011413D01*
X012676Y011462D01*
X012724Y011510D01*
X012773Y011510D01*
X012724Y011510D02*
X012676Y011558D01*
X012676Y011607D01*
X012724Y011655D01*
X012821Y011655D01*
X012870Y011607D01*
X012971Y011607D02*
X013019Y011655D01*
X013116Y011655D01*
X013164Y011607D01*
X013164Y011413D01*
X013116Y011365D01*
X013115Y004369D02*
X013164Y004321D01*
X013164Y004127D01*
X013115Y004079D01*
X013018Y004079D01*
X012970Y004127D01*
X012869Y004079D02*
X012675Y004079D01*
X012675Y004272D02*
X012869Y004079D01*
X012869Y004321D02*
X012820Y004369D01*
X012724Y004369D01*
X012675Y004321D01*
X012675Y004272D01*
X012970Y004321D02*
X013018Y004369D01*
X013115Y004369D01*
X015545Y003527D02*
X015545Y003478D01*
X015739Y003285D01*
X015545Y003285D01*
X015545Y003527D02*
X015594Y003575D01*
X015690Y003575D01*
X015739Y003527D01*
X015840Y003527D02*
X015840Y003333D01*
X015888Y003285D01*
X015985Y003285D01*
X016034Y003333D01*
X016034Y003527D01*
X015985Y003575D01*
X015888Y003575D01*
X015840Y003527D01*
X015937Y003382D02*
X015840Y003285D01*
X008291Y002348D02*
X008291Y002154D01*
X008243Y002106D01*
X008146Y002106D01*
X008098Y002154D01*
X008098Y002348D01*
X008146Y002396D01*
X008243Y002396D01*
X008291Y002348D01*
X008194Y002203D02*
X008098Y002106D01*
X007997Y002106D02*
X007803Y002106D01*
X007900Y002106D02*
X007900Y002396D01*
X007997Y002299D01*
D79*
X006360Y003797D02*
X005967Y003797D01*
X005967Y008521D01*
X006360Y008521D01*
X007542Y007734D02*
X007542Y004584D01*
X012236Y005518D02*
X012238Y005540D01*
X012244Y005562D01*
X012253Y005582D01*
X012266Y005600D01*
X012282Y005616D01*
X012300Y005629D01*
X012320Y005638D01*
X012342Y005644D01*
X012364Y005646D01*
X012386Y005644D01*
X012408Y005638D01*
X012428Y005629D01*
X012446Y005616D01*
X012462Y005600D01*
X012475Y005582D01*
X012484Y005562D01*
X012490Y005540D01*
X012492Y005518D01*
X012490Y005496D01*
X012484Y005474D01*
X012475Y005454D01*
X012462Y005436D01*
X012446Y005420D01*
X012428Y005407D01*
X012408Y005398D01*
X012386Y005392D01*
X012364Y005390D01*
X012342Y005392D01*
X012320Y005398D01*
X012300Y005407D01*
X012282Y005420D01*
X012266Y005436D01*
X012253Y005454D01*
X012244Y005474D01*
X012238Y005496D01*
X012236Y005518D01*
D80*
X012199Y008550D02*
X008839Y008550D01*
X008839Y009960D01*
X012199Y009960D01*
X012199Y008550D01*
X010825Y009030D02*
X010825Y009405D01*
X010525Y009405D02*
X010525Y009030D01*
X010600Y008955D01*
X010750Y008955D01*
X010825Y009030D01*
X010365Y009030D02*
X010290Y008955D01*
X010140Y008955D01*
X010065Y009030D01*
X010065Y009105D01*
X010140Y009180D01*
X010290Y009180D01*
X010365Y009255D01*
X010365Y009330D01*
X010290Y009405D01*
X010140Y009405D01*
X010065Y009330D01*
X009905Y009330D02*
X009830Y009405D01*
X009679Y009405D01*
X009604Y009330D01*
X009604Y009255D01*
X009905Y008955D01*
X009604Y008955D01*
X010215Y008880D02*
X010215Y009480D01*
X008929Y009660D02*
X008931Y009689D01*
X008937Y009717D01*
X008946Y009744D01*
X008960Y009769D01*
X008976Y009793D01*
X008996Y009813D01*
X009018Y009832D01*
X009042Y009846D01*
X009069Y009858D01*
X009096Y009866D01*
X009125Y009870D01*
X009153Y009870D01*
X009182Y009866D01*
X009209Y009858D01*
X009236Y009846D01*
X009260Y009832D01*
X009282Y009813D01*
X009302Y009793D01*
X009318Y009769D01*
X009332Y009744D01*
X009341Y009717D01*
X009347Y009689D01*
X009349Y009660D01*
X009347Y009631D01*
X009341Y009603D01*
X009332Y009576D01*
X009318Y009551D01*
X009302Y009527D01*
X009282Y009507D01*
X009260Y009488D01*
X009236Y009474D01*
X009209Y009462D01*
X009182Y009454D01*
X009153Y009450D01*
X009125Y009450D01*
X009096Y009454D01*
X009069Y009462D01*
X009042Y009474D01*
X009018Y009488D01*
X008996Y009507D01*
X008976Y009527D01*
X008960Y009551D01*
X008946Y009576D01*
X008937Y009603D01*
X008931Y009631D01*
X008929Y009660D01*
D81*
X016247Y008100D02*
X016247Y007785D01*
X016247Y008100D02*
X016955Y008139D01*
X016955Y007785D01*
X016955Y008139D02*
X017389Y008139D01*
X017389Y004281D01*
X016955Y004281D01*
X016955Y004635D01*
X016955Y004281D02*
X016247Y004320D01*
X016247Y004635D01*
X017389Y004321D02*
X017439Y004323D01*
X017489Y004328D01*
X017538Y004338D01*
X017586Y004351D01*
X017633Y004367D01*
X017679Y004387D01*
X017724Y004411D01*
X017766Y004437D01*
X017806Y004467D01*
X017844Y004500D01*
X017879Y004535D01*
X017912Y004573D01*
X017942Y004613D01*
X017968Y004656D01*
X017992Y004700D01*
X018012Y004746D01*
X018028Y004793D01*
X018041Y004841D01*
X018051Y004890D01*
X018056Y004940D01*
X018058Y004990D01*
X018056Y005040D01*
X018051Y005090D01*
X018041Y005139D01*
X018028Y005187D01*
X018012Y005234D01*
X017992Y005280D01*
X017968Y005325D01*
X017942Y005367D01*
X017912Y005407D01*
X017879Y005445D01*
X017844Y005480D01*
X017806Y005513D01*
X017766Y005543D01*
X017723Y005569D01*
X017679Y005593D01*
X017633Y005613D01*
X017586Y005629D01*
X017538Y005642D01*
X017489Y005652D01*
X017439Y005657D01*
X017389Y005659D01*
X017389Y006643D02*
X017439Y006645D01*
X017489Y006650D01*
X017538Y006660D01*
X017586Y006673D01*
X017633Y006689D01*
X017679Y006709D01*
X017724Y006733D01*
X017766Y006759D01*
X017806Y006789D01*
X017844Y006822D01*
X017879Y006857D01*
X017912Y006895D01*
X017942Y006935D01*
X017968Y006978D01*
X017992Y007022D01*
X018012Y007068D01*
X018028Y007115D01*
X018041Y007163D01*
X018051Y007212D01*
X018056Y007262D01*
X018058Y007312D01*
X018056Y007362D01*
X018051Y007412D01*
X018041Y007461D01*
X018028Y007509D01*
X018012Y007556D01*
X017992Y007602D01*
X017968Y007647D01*
X017942Y007689D01*
X017912Y007729D01*
X017879Y007767D01*
X017844Y007802D01*
X017806Y007835D01*
X017766Y007865D01*
X017723Y007891D01*
X017679Y007915D01*
X017633Y007935D01*
X017586Y007951D01*
X017538Y007964D01*
X017489Y007974D01*
X017439Y007979D01*
X017389Y007981D01*
X016769Y009377D02*
X016308Y009377D01*
X016462Y009377D02*
X016462Y009607D01*
X016538Y009684D01*
X016692Y009684D01*
X016769Y009607D01*
X016769Y009377D01*
X016462Y009530D02*
X016308Y009684D01*
X016308Y009837D02*
X016308Y010144D01*
X016308Y009991D02*
X016769Y009991D01*
X016615Y009837D01*
M02*
